<svg width="43" height="42" viewBox="0 0 43 42" fill="none" xmlns="http://www.w3.org/2000/svg">
<rect x="0.345703" width="42" height="42" rx="21" fill="#03A300"/>
<g clip-path="url(#clip0_505_70)">
<path fill-rule="evenodd" clip-rule="evenodd" d="M27.718 32.9999C24.943 32.9999 22.6836 30.7406 22.6836 27.9655C22.6836 25.1905 24.943 22.9312 27.718 22.9312C30.493 22.9312 32.7524 25.1905 32.7524 27.9655C32.7524 30.7405 30.493 32.9999 27.718 32.9999ZM27.4367 30.7678C26.9759 30.7186 26.5357 30.5977 26.2133 30.4312C26.0774 30.3609 26.0211 30.1921 26.0914 30.0515C26.1617 29.9109 26.3305 29.8593 26.4711 29.9296C27.0571 30.2343 28.1821 30.3562 28.8102 30.0609C29.0492 29.9484 29.1899 29.7937 29.2414 29.5874C29.3492 29.114 29.3164 28.7718 29.143 28.5656C28.8711 28.2421 28.243 28.2234 27.7274 28.2468C27.043 28.2749 26.2836 28.2374 25.8571 27.7265C25.5664 27.3749 25.4961 26.8687 25.6414 26.2171C25.7258 25.8374 25.9836 25.5421 26.3821 25.3546C26.6836 25.2152 27.0537 25.1477 27.4367 25.1372V24.7124C27.4367 24.5577 27.5633 24.4312 27.718 24.4312C27.8727 24.4312 27.9992 24.5577 27.9992 24.7124V25.1607C28.4587 25.2106 28.8974 25.3323 29.218 25.4999C29.3539 25.5703 29.4102 25.739 29.3399 25.8796C29.2695 26.0202 29.1008 26.0718 28.9602 26.0015C28.3742 25.6968 27.2492 25.5796 26.6211 25.8702C26.3821 25.9827 26.2414 26.1374 26.1899 26.3437C26.082 26.8171 26.1149 27.1593 26.2883 27.3656C26.5602 27.689 27.1883 27.7077 27.7039 27.6843C28.3883 27.6562 29.1477 27.6937 29.5742 28.2046C29.8649 28.5562 29.9352 29.0624 29.7899 29.714C29.7055 30.0937 29.4477 30.389 29.0492 30.5765C28.7503 30.7131 28.3814 30.7797 27.9992 30.7905V31.2187C27.9992 31.3734 27.8727 31.4999 27.718 31.4999C27.5633 31.4999 27.4367 31.3734 27.4367 31.2187V30.7678Z" fill="white"/>
<path fill-rule="evenodd" clip-rule="evenodd" d="M20.5344 30.7785C20.4106 30.7752 20.2871 30.7697 20.164 30.7623C18.7651 30.5028 17.4589 29.4314 16.4342 27.682C16.1373 27.1754 15.873 26.6272 15.6429 26.0452C17.1462 26.4956 18.8087 26.7456 20.5344 26.7714L20.5344 30.7785ZM17.9847 30.4083C16.1657 29.9186 14.4989 28.9587 13.1307 27.5904C11.7624 26.2222 10.8026 24.5555 10.3128 22.7365C10.8906 23.4997 11.7056 24.199 12.7361 24.803C13.4009 25.1925 14.1321 25.5282 14.9142 25.8067C15.1928 26.5889 15.5285 27.32 15.918 27.9848C16.522 29.0154 17.2214 29.8306 17.9847 30.4083ZM21.1301 26.7715C21.5401 26.7655 21.9488 26.7471 22.3546 26.7155C22.2609 27.1172 22.2113 27.5356 22.2113 27.9654C22.2113 28.8028 22.3997 29.5971 22.7357 30.3085C22.3334 30.5332 21.9213 30.6844 21.5028 30.7623C21.3788 30.7698 21.2545 30.7752 21.1301 30.7786L21.1301 26.7715ZM9.95885 20.5584C9.9515 20.4365 9.94604 20.3142 9.94272 20.1915H13.9497C13.9759 21.9154 14.2258 23.5763 14.6758 25.0781C14.0937 24.8481 13.5456 24.5837 13.0389 24.2867C11.2902 23.2624 10.2188 21.9567 9.95885 20.5584ZM14.5503 20.1915H20.5344V26.1707C18.6992 26.1425 16.9408 25.8541 15.385 25.3359C14.8673 23.7815 14.579 22.0248 14.5503 20.1915ZM21.13 20.1915H27.119C27.1066 20.9794 27.0457 21.7568 26.9379 22.5141C24.9019 22.8044 23.2207 24.2127 22.5386 26.0953C22.0734 26.1377 21.6022 26.1631 21.13 26.1706L21.13 20.1915ZM27.7149 20.1915H31.7219C31.7184 20.3233 31.7125 20.4548 31.7043 20.5858C31.5325 21.4641 31.0387 22.3096 30.2459 23.0743C29.4883 22.6811 28.6287 22.4586 27.7181 22.4586C27.6609 22.4586 27.6039 22.4597 27.5471 22.4615C27.6475 21.7195 27.7034 20.9598 27.7149 20.1915ZM31.3517 22.7325C31.2724 23.0264 31.1806 23.3173 31.0764 23.6048C30.9799 23.5302 30.8809 23.4587 30.7795 23.3906C30.9907 23.1768 31.1816 22.9572 31.3517 22.7325ZM9.94238 19.5959C9.9457 19.4699 9.95122 19.3443 9.95881 19.219C10.2188 17.8207 11.2901 16.5151 13.0389 15.4907C13.5455 15.1937 14.0937 14.9294 14.6757 14.6993C14.2249 16.2041 13.9748 17.8684 13.9494 19.5958L9.94238 19.5959ZM15.3849 14.4416C16.9407 13.9234 18.6992 13.635 20.5343 13.6068V19.5958H14.5501C14.5778 17.759 14.8663 15.9988 15.3849 14.4416ZM21.13 13.6068C22.9689 13.6349 24.7273 13.9235 26.2841 14.4409C26.803 15.9983 27.0914 17.7587 27.1192 19.5959H21.13L21.13 13.6068ZM26.9858 14.695C27.5703 14.9249 28.1209 15.189 28.6305 15.4858C30.3613 16.4996 31.4284 17.7891 31.7022 19.1712C31.7114 19.3122 31.718 19.4538 31.7218 19.5958H27.7148C27.689 17.8666 27.438 16.2008 26.9858 14.695ZM10.3145 17.0388C10.8054 15.2211 11.7661 13.5565 13.1306 12.192C14.4984 10.8242 16.1664 9.86454 17.9846 9.37467C17.2213 9.95165 16.5215 10.7651 15.9179 11.7926C15.5284 12.4574 15.1927 13.1886 14.9142 13.9707C14.132 14.2492 13.4009 14.585 12.736 14.9745C11.7066 15.5779 10.8921 16.2764 10.3145 17.0388ZM20.1251 9.02252C20.2611 9.01385 20.3975 9.00757 20.5343 9.00392V13.0061C18.8087 13.0319 17.1461 13.2819 15.6428 13.7323C15.8729 13.1503 16.1372 12.6021 16.4342 12.0954C17.4494 10.3623 18.7409 9.29455 20.1251 9.02252ZM21.13 9.00391C21.2675 9.00757 21.4045 9.01386 21.5411 9.02259C22.9274 9.29473 24.2158 10.3624 25.2352 12.0954C25.5324 12.6026 25.797 13.1513 26.0271 13.734C24.5224 13.2825 22.8578 13.0319 21.13 13.0061L21.13 9.00391ZM23.6771 9.37344C25.4971 9.86292 27.1648 10.8231 28.5337 12.192C29.9001 13.5584 30.8593 15.2223 31.3496 17.0384C30.772 16.2762 29.9576 15.5778 28.9283 14.9745C28.2629 14.5847 27.531 14.2487 26.7481 13.97C26.4701 13.1901 26.135 12.4608 25.7464 11.7976C25.1422 10.7666 24.4414 9.9512 23.6771 9.37344Z" fill="white"/>
</g>
<defs>
<clipPath id="clip0_505_70">
<rect width="24" height="24" fill="white" transform="translate(9.3457 9)"/>
</clipPath>
</defs>
</svg>
