<svg width="128" height="164" viewBox="0 0 128 164" fill="none" xmlns="http://www.w3.org/2000/svg">
<rect opacity="0.2" x="108.604" y="25.4736" width="120" height="108" transform="rotate(90.2512 108.604 25.4736)" fill="url(#paint0_linear_468_520)"/>
<path d="M42.4677 61.3655C42.4786 58.8931 43.092 56.682 44.3081 54.7323C45.5529 52.7827 47.3421 51.2524 49.6758 50.1414C52.0094 49.0304 54.8293 48.4821 58.1355 48.4966C61.4418 48.5111 64.2568 49.0841 66.5806 50.2155C68.9044 51.347 70.6658 52.8928 71.8647 54.8531C73.0924 56.8135 73.7008 59.0299 73.6899 61.5024C73.679 64.0036 73.0511 66.2147 71.8065 68.1355C70.5904 70.0852 68.8155 71.6155 66.4819 72.7266C64.1483 73.8376 61.3283 74.3859 58.0221 74.3714C54.7159 74.3569 51.9009 73.7839 49.5771 72.6524C47.2533 71.521 45.4775 69.9751 44.2498 68.0147C43.0508 66.0831 42.4568 63.8668 42.4677 61.3655ZM48.3758 61.3914C48.3706 62.5702 48.6968 63.5923 49.3542 64.4576C50.0116 65.3518 51.0579 66.0464 52.4933 66.5414C53.9285 67.0652 55.7817 67.3321 58.0529 67.3421C60.3242 67.352 62.1796 67.1014 63.6194 66.5902C65.059 66.1078 66.1114 65.4224 66.7766 64.534C67.4416 63.6744 67.7767 62.6553 67.7819 61.4765C67.7869 60.3265 67.4608 59.3045 66.8034 58.4103C66.146 57.5449 65.0996 56.8503 63.6644 56.3265C62.2291 55.8315 60.3758 55.579 58.1045 55.569C55.8333 55.5591 53.9779 55.7953 52.5383 56.2778C51.0985 56.789 50.0461 57.4744 49.3811 58.3339C48.7159 59.2223 48.3808 60.2415 48.3758 61.3914ZM42.8939 82.1886L70.4937 82.3096L67.4617 85.315L67.5014 76.2589L73.1076 76.2835L73.0505 89.3071L42.8633 89.1747L42.8939 82.1886Z" fill="#31000F"/>
<path d="M53.1011 95.6034L73.3815 102.808L73.3733 104.684L53.0928 97.4793L53.1011 95.6034ZM55.0241 109.446C55.0288 108.382 55.1987 107.348 55.5337 106.343C55.8687 105.352 56.3178 104.542 56.8812 103.912L58.5803 104.911C58.1037 105.413 57.7127 106.065 57.4073 106.869C57.1019 107.672 56.9472 108.534 56.9432 109.454C56.9383 110.575 57.1716 111.446 57.6433 112.066C58.1293 112.701 58.7819 113.02 59.6013 113.024C60.3919 113.027 61.0257 112.728 61.5028 112.126C61.9941 111.539 62.2426 110.599 62.2483 109.305L62.2536 108.097L63.7629 108.104L69.2632 112.613L68.3994 112.911L68.4356 104.653L70.3115 104.661L70.2678 114.623L68.8016 114.616L63.3228 110.129L63.9961 109.011L63.993 109.722C63.985 111.548 63.5693 112.912 62.746 113.814C61.9226 114.73 60.8784 115.185 59.6134 115.18C58.7653 115.176 57.99 114.964 57.2874 114.544C56.5849 114.124 56.027 113.489 55.6139 112.639C55.2151 111.804 55.0185 110.739 55.0241 109.446Z" fill="black"/>
<rect opacity="0.1" x="88.0869" y="143.385" width="20" height="88" transform="rotate(90.2512 88.0869 143.385)" fill="url(#paint1_linear_468_520)"/>
<rect x="128.727" y="-2.43848" width="128" height="128" transform="rotate(90.2512 128.727 -2.43848)" fill="url(#paint2_linear_468_520)"/>
<rect x="128.727" y="-2.43848" width="128" height="128" transform="rotate(90.2512 128.727 -2.43848)" fill="url(#paint3_linear_468_520)"/>
<defs>
<linearGradient id="paint0_linear_468_520" x1="115.062" y1="33.5552" x2="198.355" y2="139.324" gradientUnits="userSpaceOnUse">
<stop stop-color="#EF3B26"/>
<stop offset="0.460076" stop-color="#EB4624"/>
<stop offset="0.86136" stop-color="#F48752" stop-opacity="0.266667"/>
</linearGradient>
<linearGradient id="paint1_linear_468_520" x1="89.1632" y1="149.97" x2="123.138" y2="158.794" gradientUnits="userSpaceOnUse">
<stop stop-color="#EF3B26"/>
<stop offset="0.460076" stop-color="#EB4624"/>
<stop offset="0.86136" stop-color="#F48752" stop-opacity="0.266667"/>
</linearGradient>
<linearGradient id="paint2_linear_468_520" x1="135.615" y1="7.13967" x2="236.264" y2="122.167" gradientUnits="userSpaceOnUse">
<stop stop-color="#EF3B26"/>
<stop offset="0.460076" stop-color="#EB4624"/>
<stop offset="0.86136" stop-color="#F48752"/>
</linearGradient>
<linearGradient id="paint3_linear_468_520" x1="135.615" y1="7.13967" x2="236.264" y2="122.167" gradientUnits="userSpaceOnUse">
<stop stop-color="#EF3B26"/>
<stop offset="0.460076" stop-color="#EB4624"/>
<stop offset="0.86136" stop-color="#F48752"/>
</linearGradient>
</defs>
</svg>
