<svg width="61" height="61" viewBox="0 0 61 61" fill="none" xmlns="http://www.w3.org/2000/svg">
<rect x="2.57715" y="2.83301" width="56" height="56" rx="28" stroke="#E53424" stroke-width="4"/>
<path d="M29.1436 25.6709L29.7881 25.0264C30.0811 24.7627 30.5205 24.7627 30.7842 25.0264L36.4971 30.71C36.7607 31.0029 36.7607 31.4424 36.4971 31.7061L30.7842 37.4189C30.5205 37.6826 30.0811 37.6826 29.7881 37.4189L29.1436 36.7744C28.8799 36.4814 28.8799 36.042 29.1436 35.749L32.6885 32.3799H24.2803C23.8701 32.3799 23.5771 32.0869 23.5771 31.6768V30.7393C23.5771 30.3584 23.8701 30.0361 24.2803 30.0361H32.6885L29.1436 26.6963C28.8799 26.4033 28.8506 25.9639 29.1436 25.6709Z" fill="#E53424"/>
</svg>
