<svg width="61" height="61" viewBox="0 0 61 61" fill="none" xmlns="http://www.w3.org/2000/svg">
<rect x="58.4229" y="58.4229" width="56" height="56" rx="28" transform="rotate(-180 58.4229 58.4229)" stroke="#E53424" stroke-width="4"/>
<path d="M31.8564 35.585L31.2119 36.2295C30.9189 36.4932 30.4795 36.4932 30.2158 36.2295L24.5029 30.5459C24.2393 30.2529 24.2393 29.8135 24.5029 29.5498L30.2158 23.8369C30.4795 23.5732 30.9189 23.5732 31.2119 23.8369L31.8564 24.4814C32.1201 24.7744 32.1201 25.2139 31.8564 25.5068L28.3115 28.876L36.7197 28.876C37.1299 28.876 37.4229 29.1689 37.4229 29.5791V30.5166C37.4229 30.8975 37.1299 31.2197 36.7197 31.2197L28.3115 31.2197L31.8564 34.5596C32.1201 34.8525 32.1494 35.292 31.8564 35.585Z" fill="#E53424"/>
</svg>
