<svg width="169" height="128" viewBox="0 0 169 128" fill="none" xmlns="http://www.w3.org/2000/svg">
<rect opacity="0.2" x="28.9756" y="20" width="120" height="108" fill="url(#paint0_linear_956_2058)"/>
<path d="M65.1575 85.9784C62.685 85.9784 60.4712 85.3747 58.5162 84.1672C56.5612 82.9309 55.0231 81.1484 53.9018 78.8197C52.7806 76.4909 52.22 73.6734 52.22 70.3672C52.22 67.0609 52.7806 64.2434 53.9018 61.9147C55.0231 59.5859 56.5612 57.8178 58.5162 56.6103C60.4712 55.3741 62.685 54.7559 65.1575 54.7559C67.6587 54.7559 69.8725 55.3741 71.7987 56.6103C73.7537 57.8178 75.2918 59.5859 76.4131 61.9147C77.5343 64.2434 78.095 67.0609 78.095 70.3672C78.095 73.6734 77.5343 76.4909 76.4131 78.8197C75.2918 81.1484 73.7537 82.9309 71.7987 84.1672C69.8725 85.3747 67.6587 85.9784 65.1575 85.9784ZM65.1575 80.0703C66.3362 80.0703 67.3568 79.7397 68.2193 79.0784C69.1106 78.4172 69.8006 77.3678 70.2893 75.9303C70.8068 74.4928 71.0656 72.6384 71.0656 70.3672C71.0656 68.0959 70.8068 66.2416 70.2893 64.8041C69.8006 63.3666 69.1106 62.3172 68.2193 61.6559C67.3568 60.9947 66.3362 60.6641 65.1575 60.6641C64.0075 60.6641 62.9868 60.9947 62.0956 61.6559C61.2331 62.3172 60.5431 63.3666 60.0256 64.8041C59.5368 66.2416 59.2925 68.0959 59.2925 70.3672C59.2925 72.6384 59.5368 74.4928 60.0256 75.9303C60.5431 77.3678 61.2331 78.4172 62.0956 79.0784C62.9868 79.7397 64.0075 80.0703 65.1575 80.0703ZM85.9784 85.4609V57.8609L88.9972 60.8797H79.9409V55.2734H92.9647V85.4609H85.9784Z" fill="#31000F"/>
<path d="M99.3484 75.1953L106.464 54.8834H108.34L101.224 75.1953H99.3484ZM113.182 73.2116C112.118 73.2116 111.083 73.0463 110.077 72.7156C109.085 72.385 108.273 71.9394 107.641 71.3787L108.632 69.6753C109.136 70.1497 109.79 70.5378 110.595 70.8397C111.4 71.1416 112.262 71.2925 113.182 71.2925C114.303 71.2925 115.173 71.0553 115.791 70.5809C116.424 70.0922 116.74 69.4381 116.74 68.6187C116.74 67.8281 116.438 67.1956 115.834 66.7212C115.245 66.2325 114.303 65.9881 113.01 65.9881H111.802V64.4787L116.287 58.9587L116.589 59.8212H108.331V57.9453H118.292V59.4116L113.829 64.91L112.708 64.2416H113.419C115.245 64.2416 116.611 64.6512 117.516 65.4706C118.436 66.29 118.896 67.3322 118.896 68.5972C118.896 69.4453 118.688 70.2216 118.271 70.9259C117.854 71.6303 117.221 72.1909 116.373 72.6078C115.54 73.0103 114.476 73.2116 113.182 73.2116Z" fill="black"/>
<rect opacity="0.1" x="148.976" y="40" width="20" height="88" fill="url(#paint1_linear_956_2058)"/>
<rect x="0.975586" width="128" height="128" fill="url(#paint2_linear_956_2058)"/>
<defs>
<linearGradient id="paint0_linear_956_2058" x1="35.4336" y1="28.0816" x2="118.727" y2="133.85" gradientUnits="userSpaceOnUse">
<stop stop-color="#EF3B26"/>
<stop offset="0.460076" stop-color="#EB4624"/>
<stop offset="0.86136" stop-color="#F48752" stop-opacity="0.266667"/>
</linearGradient>
<linearGradient id="paint1_linear_956_2058" x1="150.052" y1="46.585" x2="184.027" y2="55.4096" gradientUnits="userSpaceOnUse">
<stop stop-color="#EF3B26"/>
<stop offset="0.460076" stop-color="#EB4624"/>
<stop offset="0.86136" stop-color="#F48752" stop-opacity="0.266667"/>
</linearGradient>
<linearGradient id="paint2_linear_956_2058" x1="7.86413" y1="9.57814" x2="108.513" y2="124.606" gradientUnits="userSpaceOnUse">
<stop stop-color="#EF3B26"/>
<stop offset="0.460076" stop-color="#EB4624"/>
<stop offset="0.86136" stop-color="#F48752"/>
</linearGradient>
</defs>
</svg>
