<svg width="61" height="61" viewBox="0 0 61 61" fill="none" xmlns="http://www.w3.org/2000/svg">
<rect x="2.8457" y="2.24512" width="56" height="56" rx="28" stroke="#E53424" stroke-width="4"/>
<path d="M29.4121 25.083L30.0566 24.4385C30.3496 24.1748 30.7891 24.1748 31.0527 24.4385L36.7656 30.1221C37.0293 30.415 37.0293 30.8545 36.7656 31.1182L31.0527 36.8311C30.7891 37.0947 30.3496 37.0947 30.0566 36.8311L29.4121 36.1865C29.1484 35.8936 29.1484 35.4541 29.4121 35.1611L32.957 31.792H24.5488C24.1387 31.792 23.8457 31.499 23.8457 31.0889V30.1514C23.8457 29.7705 24.1387 29.4482 24.5488 29.4482H32.957L29.4121 26.1084C29.1484 25.8154 29.1191 25.376 29.4121 25.083Z" fill="#E53424"/>
</svg>
